# xmcd CD database file
#
# Track frame offsets:
#	150
#	9844
#	20570
#	27715
#	36846
#	47289
#	53847
#	66281
#	77686
#	87736
#	95732
#	104659
#	113012
#	120462
#	128303
#	137282
#	150718
#	162224
#	169399
#	182302
#
# Disc length: 2498 seconds
#
# Revision: 0
# Processed by: cddbd v1.5.2PL0 Copyright (c) Steve Scherf et al.
# Submitted via: CDex 1.70beta2
#
DISCID=f909c014
DTITLE=Dawson, Dave - Cdn. - OVM - My Angel
DYEAR=2003
DGENRE=Country
TTITLE0=My Angel
TTITLE1=Didn't Think That You Could Have the Blues
TTITLE2=Tony's Slot machine
TTITLE3=Nickles and Dimes
TTITLE4=Teardrops In Your Eyes
TTITLE5=It's 50/50
TTITLE6=Stranger On the Road
TTITLE7=Hard Going
TTITLE8=Road To Chibougamau
TTITLE9=Just On My Way Through
TTITLE10=As We Travel the Way
TTITLE11=The Drummond Cairn
TTITLE12=Land of Strarting Again
TTITLE13=Dynamite
TTITLE14=Country From the Boy
TTITLE15=Blue Skies Folk Festival
TTITLE16=Gallery of Life
TTITLE17=Sower of Seeds
TTITLE18=The Storm
TTITLE19=Two Robins
EXTD=YEAR: 2003
EXTT0=
EXTT1=
EXTT2=
EXTT3=
EXTT4=
EXTT5=
EXTT6=
EXTT7=
EXTT8=
EXTT9=
EXTT10=
EXTT11=
EXTT12=
EXTT13=
EXTT14=
EXTT15=
EXTT16=
EXTT17=
EXTT18=
EXTT19=
PLAYORDER=
